<svg width="260" height="149" fill="none" xmlns="http://www.w3.org/2000/svg"><path fill="#181818" d="M0 0h260v149H0z"/><path d="M93.636 97.856c0-.192.01-.427.032-.704.043-.299.107-.683.192-1.152.085-.49.192-1.077.32-1.76.15-.683.33-1.504.544-2.464.043-.213.139-.555.288-1.024.15-.47.341-.96.576-1.472.256-.533.555-1.045.896-1.536.363-.49.79-.853 1.28-1.088.363.085.843.31 1.44.672a4.692 4.692 0 0 1 1.536 1.44c-.491.555-.907 1.11-1.248 1.664-.32.555-.619 1.13-.896 1.728a37.39 37.39 0 0 0-.736 1.856c-.213.64-.459 1.312-.736 2.016a23.674 23.674 0 0 0-.64 1.856c-.192.619-.299 1.163-.32 1.632 0 .384-.01.651-.032.8 0 .171-.053.256-.16.256-.085 0-.256-.053-.512-.16a3.632 3.632 0 0 1-.8-.48 4.135 4.135 0 0 1-.704-.864c-.213-.341-.32-.747-.32-1.216Zm6.112-13.888c0-.128.032-.32.096-.576a1.424 1.424 0 0 1-.288-.48 2.027 2.027 0 0 1-.096-.576c0-.192.021-.448.064-.768.064-.341.139-.704.224-1.088.085-.384.192-.779.32-1.184.128-.427.256-.81.384-1.152.256 0 .565.075.928.224.384.128.768.31 1.152.544.384.213.736.459 1.056.736.32.256.565.501.736.736-.235.235-.544.565-.928.992a17.25 17.25 0 0 0-1.12 1.312c-.363.448-.693.875-.992 1.28-.299.405-.491.693-.576.864a1.317 1.317 0 0 1-.672-.32c-.192-.192-.288-.373-.288-.544Zm19.595 6.208c-.342.021-.758.245-1.248.672-.491.405-1.024.939-1.6 1.6a55.624 55.624 0 0 0-1.76 2.144c-.598.79-1.184 1.579-1.76 2.368-.555.768-1.078 1.493-1.568 2.176a28.045 28.045 0 0 1-1.248 1.632 3.422 3.422 0 0 1-1.216-.832 3.408 3.408 0 0 1-.736-1.408c.106-.661.256-1.344.448-2.048.192-.725.437-1.472.736-2.24.32-.768.704-1.568 1.152-2.4a28.593 28.593 0 0 1 1.696-2.688c-.32.021-.758.256-1.312.704-.555.427-1.152.992-1.792 1.696a34.167 34.167 0 0 0-1.985 2.336 61.24 61.24 0 0 0-1.919 2.528 73.115 73.115 0 0 0-1.984 2.912c-.513.832-.886 1.323-1.12 1.472-.555-.405-.939-.843-1.153-1.312a6.778 6.778 0 0 1-.48-1.568 16.31 16.31 0 0 1 .224-1.92c.15-.768.352-1.557.608-2.368a31.657 31.657 0 0 1 1.888-4.64c.79-1.536 1.547-2.944 2.273-4.224.597.128 1.13.33 1.6.608.49.277 1.002.683 1.535 1.216-.213.661-.543 1.365-.991 2.112-.448.725-.918 1.493-1.408 2.304-.491.81-.939 1.643-1.345 2.496a9.097 9.097 0 0 0-.799 2.592c.597-.853 1.301-1.835 2.111-2.944a55.506 55.506 0 0 1 2.529-3.136c.874-.981 1.738-1.813 2.592-2.496.853-.683 1.621-1.024 2.304-1.024.256 0 .533.043.832.128.298.085.576.192.832.32s.469.256.64.384c.17.107.266.192.288.256-.107.427-.363 1.013-.768 1.76-.384.725-.8 1.493-1.249 2.304-.447.81-.863 1.6-1.247 2.368-.384.747-.608 1.344-.672 1.792 1.045-1.43 2.026-2.72 2.943-3.872.918-1.173 1.782-2.176 2.593-3.008.81-.832 1.557-1.472 2.24-1.92.704-.448 1.365-.672 1.984-.672.426 0 .821.117 1.184.352.384.213.65.533.8.96-.192.64-.512 1.408-.96 2.304-.427.896-.864 1.845-1.312 2.848a46.66 46.66 0 0 0-1.216 2.912c-.342.96-.512 1.824-.512 2.592 0 .448.064.747.192.896.128.128.309.192.544.192.256 0 .49-.043.704-.128.234-.107.405-.16.512-.16a.477.477 0 0 1 .224.32c.021.128.032.245.032.352a6.76 6.76 0 0 1-1.312.832 3.19 3.19 0 0 1-1.504.352c-.512 0-.939-.085-1.28-.256a2.301 2.301 0 0 1-.8-.704 2.76 2.76 0 0 1-.448-1.024 5.709 5.709 0 0 1-.128-1.248c0-.725.096-1.44.288-2.144.192-.725.416-1.408.672-2.048.277-.661.565-1.27.864-1.824.298-.576.554-1.088.768-1.536Zm16.692-3.104c.214 0 .459.043.736.128.299.064.566.16.8.288.235.107.427.224.576.352.171.128.256.245.256.352a44.28 44.28 0 0 0-1.184 2.72c-.362.896-.672 1.76-.928 2.592-.256.832-.458 1.61-.608 2.336-.128.725-.192 1.355-.192 1.888 0 .597.064 1.099.192 1.504.128.384.342.661.64.832-.256.171-.586.309-.992.416a4.31 4.31 0 0 1-1.088.16c-1.152 0-1.728-.79-1.728-2.368 0-1.216.406-2.88 1.216-4.992-.426.981-.917 1.91-1.472 2.784-.554.853-1.12 1.61-1.696 2.272a10.285 10.285 0 0 1-1.76 1.632c-.576.405-1.109.651-1.6.736-.789-.043-1.429-.416-1.92-1.12-.49-.725-.736-1.643-.736-2.752 0-1.195.256-2.453.768-3.776a17.345 17.345 0 0 1 1.952-3.68c.811-1.13 1.686-2.07 2.624-2.816.939-.768 1.846-1.173 2.72-1.216.214.064.448.192.704.384.278.192.534.416.768.672.256.256.47.523.64.8.171.256.267.48.288.672-.853.128-1.738.544-2.656 1.248a13.433 13.433 0 0 0-2.464 2.56 14.999 14.999 0 0 0-1.792 3.168c-.469 1.13-.704 2.187-.704 3.168 0 .405.15.661.448.768.619-.128 1.334-.65 2.144-1.568.811-.939 1.792-2.379 2.944-4.32.214-.384.448-.81.704-1.28a51.24 51.24 0 0 0 1.632-3.008 48.39 48.39 0 0 0 .768-1.536Zm-2.98 22.464c0-.128.043-.245.128-.352.085-.107.181-.213.288-.32.256.235.48.416.672.544.171.128.341.235.512.32.149.085.309.139.48.16.171.021.373.032.608.032 1.109 0 2.165-.299 3.168-.896 1.003-.576 1.941-1.419 2.816-2.528.896-1.109 1.707-2.464 2.432-4.064.725-1.6 1.365-3.413 1.92-5.44-.256.256-.576.544-.96.864-.363.299-.747.587-1.152.864-.405.277-.811.533-1.216.768a6.367 6.367 0 0 1-.992.512 2.43 2.43 0 0 1-1.024-.448 4.255 4.255 0 0 1-.8-.928 4.487 4.487 0 0 1-.544-1.216 5.57 5.57 0 0 1-.192-1.472c0-.832.149-1.685.448-2.56.32-.875.736-1.728 1.248-2.56a14.93 14.93 0 0 1 1.792-2.4 15.574 15.574 0 0 1 2.208-1.952 11.926 11.926 0 0 1 2.368-1.312c.811-.341 1.6-.512 2.368-.512.747 0 1.301.16 1.664.48.384.299.661.821.832 1.568-.235-.128-.533-.192-.896-.192-.512 0-1.109.203-1.792.608-.661.405-1.344.939-2.048 1.6a21.33 21.33 0 0 0-2.048 2.24 22.438 22.438 0 0 0-1.824 2.56 20.408 20.408 0 0 0-1.28 2.56c-.32.832-.48 1.579-.48 2.24 0 .15.011.245.032.288.021.021.053.032.096.032.192 0 .448-.107.768-.32.341-.213.715-.48 1.12-.8.427-.341.864-.725 1.312-1.152.448-.448.875-.896 1.28-1.344a21.759 21.759 0 0 0 2.496-3.424c.768-1.28 1.376-2.517 1.824-3.712a6.35 6.35 0 0 1 1.536.288c.448.15.757.31.928.48a139.378 139.378 0 0 0-1.76 4.192c-.427 1.13-.8 2.133-1.12 3.008a164.32 164.32 0 0 1-1.632 4.192 39.726 39.726 0 0 1-1.536 3.52 22.456 22.456 0 0 1-1.696 3.008 20.267 20.267 0 0 1-2.048 2.688 5.991 5.991 0 0 1-1.248 1.056 7.67 7.67 0 0 1-1.408.8 7.369 7.369 0 0 1-1.408.48c-.448.107-.864.16-1.248.16a6.703 6.703 0 0 1-1.568-.192 6.306 6.306 0 0 1-1.472-.48 4.799 4.799 0 0 1-1.216-.704c-.341-.256-.587-.533-.736-.832Zm32.006-22.784c-.085 1.323-.32 2.464-.704 3.424a7.52 7.52 0 0 1-1.664 2.496c-.704.704-1.568 1.344-2.592 1.92-1.024.576-2.218 1.13-3.584 1.664 0 .128-.01.267-.032.416v.416c0 .277.022.565.064.864.043.299.118.576.224.832.107.256.256.47.448.64.192.15.438.224.736.224.576 0 1.142-.128 1.696-.384a8.881 8.881 0 0 0 1.568-.928c.512-.384.982-.79 1.408-1.216a55.77 55.77 0 0 0 1.184-1.216c.214.192.395.373.544.544-.96 1.28-2.016 2.347-3.168 3.2-1.13.832-2.208 1.365-3.232 1.6-1.472-.171-2.624-.704-3.456-1.6-.81-.917-1.216-2.016-1.216-3.296 0-.875.118-1.76.352-2.656a14 14 0 0 1 1.024-2.624c.448-.853.96-1.653 1.536-2.4a13.776 13.776 0 0 1 1.888-1.952 9.642 9.642 0 0 1 2.08-1.312c.726-.32 1.44-.48 2.144-.48.982.128 1.899.736 2.752 1.824Zm-2.208 1.056c-.576.085-1.173.32-1.792.704-.618.384-1.205.896-1.76 1.536a12.745 12.745 0 0 0-1.472 2.24c-.448.853-.8 1.77-1.056 2.752 1.707-.853 3.126-1.899 4.256-3.136 1.131-1.259 1.739-2.624 1.824-4.096ZM93.572 68.952c0-.939.224-2.25.672-3.936.448-1.707 1.077-3.69 1.888-5.952 1.323-3.605 2.56-6.603 3.712-8.992 1.173-2.41 2.315-4.288 3.424-5.632.256.043.565.15.928.32.384.17.757.363 1.12.576.363.192.683.395.96.608.299.213.491.384.576.512a39.438 39.438 0 0 0-4.384 6.336c-1.259 2.261-2.411 4.853-3.456 7.776-.896 2.517-1.579 4.79-2.048 6.816-.47 2.005-.704 3.68-.704 5.024v.672c0 .085.01.17.032.256a2.507 2.507 0 0 1-.768-.224c-.213-.107-.352-.235-.416-.384-.043-.107-.16-.267-.352-.48a4.243 4.243 0 0 0-.512-.448c-.192-.128-.352-.459-.48-.992a8.27 8.27 0 0 1-.192-1.856Zm18.19-10.88c.213 0 .458.043.736.128.298.064.565.16.8.288.234.107.426.224.576.352.17.128.256.245.256.352a43.088 43.088 0 0 0-1.184 2.72c-.363.896-.672 1.76-.928 2.592-.256.832-.459 1.61-.608 2.336-.128.725-.192 1.355-.192 1.888 0 .597.064 1.099.192 1.504.128.384.341.661.64.832-.256.17-.587.31-.992.416a4.33 4.33 0 0 1-1.088.16c-1.152 0-1.728-.79-1.728-2.368 0-1.216.405-2.88 1.215-4.992-.426.981-.917 1.91-1.472 2.784a20.22 20.22 0 0 1-1.695 2.272 10.322 10.322 0 0 1-1.76 1.632c-.576.405-1.11.65-1.6.736-.79-.043-1.43-.416-1.92-1.12-.491-.725-.737-1.643-.737-2.752 0-1.195.257-2.453.769-3.776a17.3 17.3 0 0 1 1.952-3.68c.81-1.13 1.685-2.07 2.623-2.816.939-.768 1.846-1.173 2.721-1.216.213.064.448.192.704.384.277.192.533.416.768.672.256.256.469.523.64.8.17.256.266.48.288.672-.854.128-1.739.544-2.656 1.248a13.437 13.437 0 0 0-2.465 2.56 14.95 14.95 0 0 0-1.791 3.168c-.47 1.13-.704 2.187-.704 3.168 0 .405.149.661.447.768.619-.128 1.334-.65 2.145-1.568.81-.939 1.792-2.379 2.944-4.32.213-.384.448-.81.704-1.28.277-.47.554-.96.832-1.472a53.68 53.68 0 0 0 .8-1.536c.277-.533.533-1.045.768-1.536Zm2.394 12.48c0-.341.298-.885.896-1.632.597-.768 1.386-1.632 2.368-2.592a57.692 57.692 0 0 1 3.424-3.072 72.42 72.42 0 0 1 4.032-3.136 43.917 43.917 0 0 0-2.144-.416 7.936 7.936 0 0 0-1.248-.128c-.619 0-1.174.085-1.664.256a4.74 4.74 0 0 0-1.44.832c-.982-.853-1.472-1.835-1.472-2.944 0-.341.01-.544.032-.608a3.68 3.68 0 0 1 1.28-.832 4.518 4.518 0 0 1 1.6-.288c.597 0 1.205.096 1.824.288.618.192 1.226.405 1.824.64.597.213 1.152.416 1.664.608.533.192 1.002.288 1.408.288.234 0 .49-.032.768-.096a2.69 2.69 0 0 0 .736-.256c.192.15.362.448.512.896.17.448.256.885.256 1.312-.662.256-1.462.704-2.4 1.344a34.088 34.088 0 0 0-2.816 2.208 46.642 46.642 0 0 0-2.816 2.656c-.896.939-1.643 1.824-2.24 2.656.448.192 1.056.288 1.824.288.49 0 .992-.043 1.504-.128a10.615 10.615 0 0 0 1.472-.352c.49-.15.938-.32 1.344-.512a5.708 5.708 0 0 0 1.024-.672c1.002.64 1.504 1.579 1.504 2.816 0 .17-.011.31-.032.416 0 .107-.011.235-.032.384a5.888 5.888 0 0 1-3.2.928 7.944 7.944 0 0 1-1.728-.192 39.491 39.491 0 0 1-1.696-.352 75.671 75.671 0 0 0-1.536-.352 5.01 5.01 0 0 0-1.312-.192c-1.024 0-1.856.48-2.496 1.44a1.512 1.512 0 0 1-.704-.576 2.275 2.275 0 0 1-.32-.928Zm15.77-1.696a9.6 9.6 0 0 1 .032-.704c.043-.299.107-.683.192-1.152.085-.49.192-1.077.32-1.76.149-.683.331-1.504.544-2.464.043-.213.139-.555.288-1.024.149-.47.341-.96.576-1.472.256-.533.555-1.045.896-1.536.363-.49.789-.853 1.28-1.088.363.085.843.31 1.44.672a4.695 4.695 0 0 1 1.536 1.44c-.491.555-.907 1.11-1.248 1.664-.32.555-.619 1.13-.896 1.728a37.686 37.686 0 0 0-.736 1.856c-.213.64-.459 1.312-.736 2.016a23.551 23.551 0 0 0-.64 1.856c-.192.619-.299 1.163-.32 1.632 0 .384-.011.65-.032.8 0 .17-.053.256-.16.256-.085 0-.256-.053-.512-.16a3.602 3.602 0 0 1-.8-.48 4.126 4.126 0 0 1-.704-.864c-.213-.341-.32-.747-.32-1.216Zm6.112-13.888c0-.128.032-.32.096-.576a1.415 1.415 0 0 1-.288-.48 2.027 2.027 0 0 1-.096-.576c0-.192.021-.448.064-.768.064-.341.139-.704.224-1.088.085-.384.192-.779.32-1.184.128-.427.256-.81.384-1.152.256 0 .565.075.928.224.384.128.768.31 1.152.544.384.213.736.459 1.056.736.32.256.565.501.736.736-.235.235-.544.565-.928.992a17.25 17.25 0 0 0-1.12 1.312c-.363.448-.693.875-.992 1.28-.299.405-.491.693-.576.864a1.317 1.317 0 0 1-.672-.32c-.192-.192-.288-.373-.288-.544Zm12.555 2.784c-.086 1.323-.32 2.464-.704 3.424a7.535 7.535 0 0 1-1.664 2.496c-.704.704-1.568 1.344-2.592 1.92-1.024.576-2.219 1.13-3.584 1.664 0 .128-.011.267-.032.416v.416c0 .277.021.565.064.864.042.299.117.576.224.832.106.256.256.47.448.64.192.15.437.224.736.224a4.01 4.01 0 0 0 1.696-.384 8.954 8.954 0 0 0 1.568-.928c.512-.384.981-.79 1.408-1.216.448-.448.842-.853 1.184-1.216.213.192.394.373.544.544-.96 1.28-2.016 2.347-3.168 3.2-1.131.832-2.208 1.365-3.232 1.6-1.472-.17-2.624-.704-3.456-1.6-.811-.917-1.216-2.016-1.216-3.296 0-.875.117-1.76.352-2.656.256-.917.597-1.792 1.024-2.624.448-.853.96-1.653 1.536-2.4a13.666 13.666 0 0 1 1.888-1.952 9.618 9.618 0 0 1 2.08-1.312c.725-.32 1.44-.48 2.144-.48.981.128 1.898.736 2.752 1.824Zm-2.208 1.056c-.576.085-1.174.32-1.792.704-.619.384-1.206.896-1.76 1.536a12.689 12.689 0 0 0-1.472 2.24c-.448.853-.8 1.77-1.056 2.752 1.706-.853 3.125-1.899 4.256-3.136 1.13-1.259 1.738-2.624 1.824-4.096Zm14.409-.544a5.753 5.753 0 0 1-.224 1.28 6.446 6.446 0 0 1-.416 1.184c-.171.341-.352.63-.544.864-.192.235-.373.352-.544.352-.235-.021-.373-.181-.416-.48 0-.064.021-.16.064-.288.064-.15.128-.31.192-.48.064-.17.117-.341.16-.512.064-.17.096-.32.096-.448 0-.299-.075-.544-.224-.736a.602.602 0 0 0-.544-.32c-.853 0-1.504.533-1.952 1.6-.448 1.067-.672 2.635-.672 4.704 0 .213.011.341.032.384.448-.021.843-.032 1.184-.032a18.04 18.04 0 0 1 1.056-.032.673.673 0 0 1 .032.256c0 .192-.043.33-.128.416-.491.107-.885.203-1.184.288a3.977 3.977 0 0 0-.64.192c-.149.064-.245.139-.288.224a.982.982 0 0 0-.032.288v.512c.021.17.032.384.032.64 0 1.792-.491 3.232-1.472 4.32-.96 1.088-2.304 1.717-4.032 1.888a2.64 2.64 0 0 1-.928-.256 4.769 4.769 0 0 1-.928-.576 4.373 4.373 0 0 1-.736-.8 2.578 2.578 0 0 1-.448-.864c0-.81.171-1.579.512-2.304.341-.747.8-1.397 1.376-1.952a6.928 6.928 0 0 1 2.08-1.376 7.645 7.645 0 0 1 2.624-.64c0-.533-.053-1.056-.16-1.568a25.152 25.152 0 0 0-.352-1.472c-.107-.49-.213-.96-.32-1.408a6.178 6.178 0 0 1-.16-1.376c0-.576.117-1.141.352-1.696a6.095 6.095 0 0 1 .928-1.568 5.74 5.74 0 0 1 1.344-1.248 4.83 4.83 0 0 1 1.6-.704c.235.064.544.256.928.576.405.299.8.64 1.184 1.024.384.384.725.779 1.024 1.184.299.384.48.704.544.96Zm-10.56 14.592a5.024 5.024 0 0 0 1.44-.928 6.83 6.83 0 0 0 2.016-3.008 4.87 4.87 0 0 0 .32-1.696c-.427.064-.896.267-1.408.608-.512.32-.992.715-1.44 1.184a7.557 7.557 0 0 0-1.12 1.408c-.299.49-.448.917-.448 1.28 0 .47.213.853.64 1.152Zm12.151-14.112c-.107-.128-.203-.395-.288-.8a5.641 5.641 0 0 1-.128-1.088c.554.043 1.088.085 1.6.128.512.021.981.043 1.408.064.32-.64.661-1.27 1.024-1.888.384-.64.746-1.216 1.088-1.728.362-.533.693-.981.992-1.344.32-.363.565-.597.736-.704.213 0 .48.043.8.128.341.064.682.16 1.024.288.341.107.65.224.928.352.277.128.469.256.576.384-.64.81-1.195 1.568-1.664 2.272a63.884 63.884 0 0 0-1.472 2.368 28.356 28.356 0 0 0 2.624-.128c.106.107.192.245.256.416.064.15.096.31.096.48-1.046.384-2.315.597-3.808.64a39.25 39.25 0 0 0-1.44 3.072 40.116 40.116 0 0 0-1.056 2.912 31.835 31.835 0 0 0-.672 2.656c-.15.832-.224 1.579-.224 2.24 0 .939.352 1.461 1.056 1.568a7.405 7.405 0 0 0 1.824-.48 6.052 6.052 0 0 0 1.536-.896c.128.192.202.352.224.48-.128.192-.352.416-.672.672-.299.256-.63.501-.992.736-.363.256-.715.47-1.056.64-.342.17-.598.267-.768.288a4.8 4.8 0 0 1-1.6-.352 6.964 6.964 0 0 1-1.472-.8 4.937 4.937 0 0 1-1.056-1.056c-.278-.405-.416-.8-.416-1.184 0-.512.064-1.152.192-1.92.149-.79.352-1.643.608-2.56a53.409 53.409 0 0 1 2.016-5.856h-1.824Z" fill="#fff"/></svg>